<svg xmlns="http://www.w3.org/2000/svg" width="75" height="50.299" viewBox="0 0 75 50.299">
  <g id="Group_41" data-name="Group 41" transform="translate(-2586.5 -5993.701)">
    <text id="Pantheon" transform="translate(2586.5 6041)" fill="#f9f7ef" font-size="15" font-family="AncientGeek, Ancient Geek"><tspan x="0" y="0">Pantheon</tspan></text>
    <path id="Icon_map-museum" data-name="Icon map-museum" d="M33.794,15.255h-3.26l-.5,14.984h4.195l-.434-14.984Zm2.722,15.817H4.882v1.665h-2.5v2.5H.72V36.9H40.678V35.234H39.013v-2.5h-2.5ZM3.217,10.936,20.7,3.6l17.483,7.336v.989H3.217v-.989Zm31.634,1.821H6.547v1.665h28.3Zm-23.922,2.5H7.671L7.166,30.239h4.2l-.437-14.984Zm7.619,0H15.29l-.5,14.984h4.2l-.439-14.984Zm7.62,0H22.909l-.5,14.984h4.195l-.44-14.984Z" transform="translate(2602.801 5990.101)" fill="#fff"/>
  </g>
</svg>
