<svg xmlns="http://www.w3.org/2000/svg" width="30" height="21.676" viewBox="0 0 30 21.676">
  <g id="Group_45" data-name="Group 45" transform="translate(-150 -785.099)">
    <path id="Icon_awesome-thumbs-up" data-name="Icon awesome-thumbs-up" d="M3.442,7.414H.794A.794.794,0,0,0,0,8.208v7.944a.794.794,0,0,0,.794.794H3.442a.794.794,0,0,0,.794-.794V8.208A.794.794,0,0,0,3.442,7.414ZM2.118,15.622a.794.794,0,1,1,.794-.794A.794.794,0,0,1,2.118,15.622ZM12.71,2.7c0,1.4-.86,2.191-1.1,3.129h3.367a1.978,1.978,0,0,1,1.971,1.923A2.4,2.4,0,0,1,16.3,9.377l0,0a2.765,2.765,0,0,1-.308,2.63,2.617,2.617,0,0,1-.542,2.474,1.757,1.757,0,0,1-.2,1.477c-.676.971-2.35.984-3.766.984h-.094A9.5,9.5,0,0,1,7.428,15.9a5.209,5.209,0,0,0-1.743-.535.4.4,0,0,1-.39-.4V7.888a.4.4,0,0,1,.118-.282c1.311-1.3,1.875-2.667,2.95-3.744a4.008,4.008,0,0,0,.84-1.95C9.351,1.3,9.659,0,10.327,0,11.121,0,12.71.265,12.71,2.7Z" transform="translate(163.054 789.828)" fill="#ca888f"/>
    <path id="Icon_awesome-thumbs-down" data-name="Icon awesome-thumbs-down" d="M16.918,1.85v7.93a.793.793,0,0,1-.793.793H13.482a.793.793,0,0,1-.793-.793V1.85a.793.793,0,0,1,.793-.793h2.643A.793.793,0,0,1,16.918,1.85ZM15.6,8.459a.793.793,0,1,0-.793.793A.793.793,0,0,0,15.6,8.459ZM6.609,16.918c.667,0,.974-1.3,1.121-1.91a4,4,0,0,1,.839-1.946c1.073-1.075,1.636-2.444,2.945-3.738a.4.4,0,0,0,.118-.282V1.979a.4.4,0,0,0-.389-.4A5.2,5.2,0,0,1,9.5,1.048,9.486,9.486,0,0,0,5.551,0H5.457C4.044,0,2.372.014,1.7.983a1.754,1.754,0,0,0-.2,1.475,2.613,2.613,0,0,0-.541,2.47A2.76,2.76,0,0,0,.646,7.553l0,0A2.392,2.392,0,0,0,0,9.183,1.974,1.974,0,0,0,1.968,11.1H5.329c-.241.936-1.1,1.723-1.1,3.124C4.23,16.654,5.816,16.918,6.609,16.918Z" transform="translate(150 785.099)" fill="#ca888f"/>
  </g>
</svg>
