<svg xmlns="http://www.w3.org/2000/svg" width="55.361" height="40" viewBox="0 0 55.361 40">
  <g id="Group_2" data-name="Group 2" transform="translate(-150 -785.099)">
    <path id="Icon_awesome-thumbs-up" data-name="Icon awesome-thumbs-up" d="M6.43,13.85H1.484A1.484,1.484,0,0,0,0,15.334V30.173a1.484,1.484,0,0,0,1.484,1.484H6.43a1.484,1.484,0,0,0,1.484-1.484V15.334A1.484,1.484,0,0,0,6.43,13.85ZM3.957,29.183A1.484,1.484,0,1,1,5.441,27.7,1.484,1.484,0,0,1,3.957,29.183ZM23.742,5.036c0,2.623-1.606,4.094-2.057,5.846h6.289a3.694,3.694,0,0,1,3.682,3.592,4.477,4.477,0,0,1-1.2,3.042l-.007.007a5.165,5.165,0,0,1-.576,4.914,4.889,4.889,0,0,1-1.013,4.622,3.282,3.282,0,0,1-.38,2.76c-1.262,1.813-4.39,1.839-7.034,1.839h-.176a17.749,17.749,0,0,1-7.392-1.962,9.731,9.731,0,0,0-3.255-1,.742.742,0,0,1-.729-.742V14.736a.741.741,0,0,1,.22-.527c2.449-2.42,3.5-4.983,5.51-6.994a7.488,7.488,0,0,0,1.57-3.642c.275-1.144.85-3.573,2.1-3.573C20.775,0,23.742.495,23.742,5.036Z" transform="translate(173.704 793.442)" fill="#ca888f"/>
    <path id="Icon_awesome-thumbs-down" data-name="Icon awesome-thumbs-down" d="M31.6,3.457V18.271a1.481,1.481,0,0,1-1.481,1.481H25.184A1.481,1.481,0,0,1,23.7,18.271V3.457a1.481,1.481,0,0,1,1.481-1.481h4.938A1.481,1.481,0,0,1,31.6,3.457ZM29.135,15.8a1.481,1.481,0,1,0-1.481,1.481A1.481,1.481,0,0,0,29.135,15.8ZM12.345,31.6c1.246,0,1.82-2.425,2.094-3.567A7.476,7.476,0,0,1,16.007,24.4c2-2.008,3.056-4.566,5.5-6.982a.739.739,0,0,0,.22-.526V3.7A.741.741,0,0,0,21,2.957a9.713,9.713,0,0,1-3.25-1A17.72,17.72,0,0,0,10.37,0h-.176C7.554,0,4.432.025,3.172,1.836a3.277,3.277,0,0,0-.379,2.755A4.881,4.881,0,0,0,1.781,9.2a5.157,5.157,0,0,0-.575,4.905l-.007.007A4.469,4.469,0,0,0,0,17.154,3.688,3.688,0,0,0,3.676,20.74H9.955C9.5,22.489,7.9,23.958,7.9,26.576,7.9,31.11,10.864,31.6,12.345,31.6Z" transform="translate(150 785.099)" fill="#ca888f"/>
  </g>
</svg>
