<svg xmlns="http://www.w3.org/2000/svg" width="40.002" height="28.903" viewBox="0 0 40.002 28.903">
  <g id="Group_43" data-name="Group 43" transform="translate(-150 -785.099)">
    <path id="Icon_awesome-thumbs-up" data-name="Icon awesome-thumbs-up" d="M4.646,10.007H1.072A1.072,1.072,0,0,0,0,11.08V21.8a1.072,1.072,0,0,0,1.072,1.072H4.646A1.072,1.072,0,0,0,5.719,21.8V11.08A1.072,1.072,0,0,0,4.646,10.007ZM2.859,21.087a1.072,1.072,0,1,1,1.072-1.072A1.072,1.072,0,0,1,2.859,21.087Zm14.3-17.448c0,1.895-1.16,2.958-1.487,4.224h4.545a2.669,2.669,0,0,1,2.661,2.6,3.235,3.235,0,0,1-.868,2.2l0,0a3.732,3.732,0,0,1-.416,3.55,3.533,3.533,0,0,1-.732,3.34,2.372,2.372,0,0,1-.275,1.994c-.912,1.31-3.172,1.329-5.083,1.329h-.127a12.825,12.825,0,0,1-5.341-1.417,7.031,7.031,0,0,0-2.352-.723.536.536,0,0,1-.526-.536v-9.55a.536.536,0,0,1,.159-.381c1.77-1.749,2.531-3.6,3.981-5.053a5.411,5.411,0,0,0,1.134-2.632c.2-.827.614-2.582,1.516-2.582C15.011,0,17.156.357,17.156,3.639Z" transform="translate(167.128 791.127)" fill="#ca888f"/>
    <path id="Icon_awesome-thumbs-down" data-name="Icon awesome-thumbs-down" d="M22.836,2.5V13.2a1.07,1.07,0,0,1-1.07,1.07H18.2a1.07,1.07,0,0,1-1.07-1.07V2.5a1.07,1.07,0,0,1,1.07-1.07h3.568A1.07,1.07,0,0,1,22.836,2.5Zm-1.784,8.92a1.07,1.07,0,1,0-1.07,1.07A1.07,1.07,0,0,0,21.052,11.418ZM8.92,22.836c.9,0,1.315-1.753,1.513-2.578a5.4,5.4,0,0,1,1.133-2.627c1.448-1.451,2.208-3.3,3.975-5.045a.534.534,0,0,0,.159-.38V2.672a.535.535,0,0,0-.526-.535,7.018,7.018,0,0,1-2.348-.722A12.8,12.8,0,0,0,7.493,0H7.366C5.459,0,3.2.018,2.292,1.326a2.368,2.368,0,0,0-.274,1.991,3.527,3.527,0,0,0-.731,3.334A3.726,3.726,0,0,0,.872,10.2l0,0A3.229,3.229,0,0,0,0,12.395a2.665,2.665,0,0,0,2.656,2.591H7.193C6.867,16.25,5.709,17.311,5.709,19.2,5.709,22.479,7.85,22.836,8.92,22.836Z" transform="translate(150 785.099)" fill="#ca888f"/>
  </g>
</svg>
