<svg xmlns="http://www.w3.org/2000/svg" width="30" height="21.676" viewBox="0 0 30 21.676">
  <g id="Group_46" data-name="Group 46" transform="translate(-150 -785.099)">
    <path id="Icon_awesome-thumbs-up" data-name="Icon awesome-thumbs-up" d="M3.445,7.42H.8a.8.8,0,0,0-.8.8v7.95a.8.8,0,0,0,.8.8h2.65a.8.8,0,0,0,.8-.8V8.215A.8.8,0,0,0,3.445,7.42ZM2.12,15.635a.8.8,0,1,1,.8-.8A.8.8,0,0,1,2.12,15.635ZM12.72,2.7c0,1.405-.86,2.193-1.1,3.132h3.37A1.979,1.979,0,0,1,16.96,7.755a2.4,2.4,0,0,1-.644,1.63l0,0A2.767,2.767,0,0,1,16,12.021a2.62,2.62,0,0,1-.543,2.476,1.759,1.759,0,0,1-.2,1.478c-.676.971-2.352.985-3.769.985H11.4A9.509,9.509,0,0,1,7.435,15.91a5.213,5.213,0,0,0-1.744-.536.4.4,0,0,1-.39-.4V7.895a.4.4,0,0,1,.118-.282c1.312-1.3,1.877-2.67,2.952-3.747a4.012,4.012,0,0,0,.841-1.951C9.359,1.3,9.667,0,10.335,0,11.13,0,12.72.265,12.72,2.7Z" transform="translate(163.04 789.814)" fill="#9b1b30"/>
    <path id="Icon_awesome-thumbs-down" data-name="Icon awesome-thumbs-down" d="M16.932,1.852V9.789a.794.794,0,0,1-.794.794H13.493a.794.794,0,0,1-.794-.794V1.852a.794.794,0,0,1,.794-.794h2.646A.794.794,0,0,1,16.932,1.852ZM15.609,8.466a.794.794,0,1,0-.794.794A.794.794,0,0,0,15.609,8.466Zm-9,8.466c.667,0,.975-1.3,1.122-1.911a4.005,4.005,0,0,1,.84-1.948C9.65,12,10.213,10.627,11.523,9.332a.4.4,0,0,0,.118-.282V1.981a.4.4,0,0,0-.39-.4A5.2,5.2,0,0,1,9.51,1.049,9.494,9.494,0,0,0,5.556,0H5.462C4.047,0,2.374.014,1.7.983a1.756,1.756,0,0,0-.2,1.476A2.615,2.615,0,0,0,.954,4.932,2.763,2.763,0,0,0,.647,7.56l0,0A2.394,2.394,0,0,0,0,9.19a1.976,1.976,0,0,0,1.969,1.921H5.334c-.242.937-1.1,1.724-1.1,3.127C4.233,16.668,5.82,16.932,6.614,16.932Z" transform="translate(150 785.099)" fill="#9b1b30"/>
  </g>
</svg>
