<!DOCTYPE svg PUBLIC "-//W3C//DTD SVG 1.1//EN" "http://www.w3.org/Graphics/SVG/1.1/DTD/svg11.dtd">
<!-- Uploaded to: SVG Repo, www.svgrepo.com, Transformed by: SVG Repo Mixer Tools -->
<svg height="800px" width="800px" version="1.1" id="_x32_" xmlns="http://www.w3.org/2000/svg" xmlns:xlink="http://www.w3.org/1999/xlink" viewBox="0 0 512 512" xml:space="preserve" fill="#000000">
<g id="SVGRepo_bgCarrier" stroke-width="0"/>
<g id="SVGRepo_tracerCarrier" stroke-linecap="round" stroke-linejoin="round"/>
<g id="SVGRepo_iconCarrier"> <style type="text/css"> .st0{fill:#d50b0b;} </style> <g> <path class="st0" d="M500.789,325.626c0-1.57,0-3.073,0-4.82c0-2.091,0-2.948,0-3.023c0-0.487,0-1.109,0-1.528 c0-1.52,0-2.578,0-3.107c0.168-3.225,0.84-7.156,1.847-11.472c1.512-6.592,3.771-14.05,5.72-21.75 c0.974-3.872,1.872-7.802,2.536-11.791C511.554,264.146,512,260.106,512,256c0-5.475-0.773-10.842-1.848-16.107 c-1.612-7.886-3.905-15.595-5.794-22.708c-0.948-3.552-1.788-6.945-2.427-10.069c-0.613-3.057-1.008-5.836-1.142-8.238 c0-5.736,0-29.384,0-45.492c0-3.644,0.277-6.584,0.689-9.086c0.621-3.762,1.536-6.568,2.628-9.582 c0.546-1.511,1.142-3.056,1.747-4.778c0.597-1.722,1.201-3.612,1.68-5.719c1.972-8.716,2.746-16.644,2.746-23.656 c0-10.85-1.84-19.484-3.771-25.512c-1.94-6.03-3.938-9.464-4.308-10.069l-1.36-2.226l-2.226-1.36 c-0.596-0.37-4.039-2.368-10.077-4.308c-6.012-1.932-14.654-3.78-25.504-3.771c-7.013-0.009-14.94,0.773-23.657,2.746 c-2.814,0.639-5.223,1.496-7.382,2.276c-3.258,1.2-5.963,2.259-9.213,3.057c-3.242,0.806-7.096,1.41-12.571,1.41 c-8.373,0-32.743,0-55.006,0c-11.144,0-21.75,0-29.578,0c-3.913,0-7.13,0-9.372,0c-1.537,0-2.603,0-3.124,0 c-3.208-0.176-7.146-0.839-11.454-1.847c-6.592-1.512-14.05-3.771-21.75-5.719c-3.871-0.974-7.801-1.872-11.79-2.536 c-3.99-0.663-8.037-1.108-12.135-1.108c-5.476,0.008-10.842,0.773-16.108,1.839c-7.886,1.612-15.595,3.914-22.708,5.803 c-3.552,0.949-6.945,1.789-10.069,2.427c-3.057,0.604-5.836,1.008-8.23,1.142c-5.744,0-80.989,0-97.097,0 c-3.636,0-6.584-0.277-9.086-0.688c-3.762-0.622-6.567-1.538-9.582-2.629c-1.503-0.546-3.065-1.142-4.778-1.746 c-1.722-0.597-3.611-1.202-5.72-1.68c-8.716-1.973-16.644-2.754-23.656-2.746c-10.851-0.009-19.484,1.839-25.513,3.771 c-6.03,1.94-9.473,3.938-10.069,4.308l-2.234,1.36l-1.352,2.217c-0.37,0.613-2.377,4.048-4.308,10.078 c-1.931,6.029-3.78,14.662-3.78,25.512c0,7.012,0.773,14.94,2.763,23.656c0.639,2.814,1.478,5.224,2.268,7.382 c1.201,3.258,2.259,5.963,3.065,9.204c0.798,3.25,1.403,7.105,1.403,12.58c0,16.108,0,39.747,0,45.492 c-0.176,3.216-0.848,7.138-1.847,11.446c-1.512,6.592-3.771,14.05-5.719,21.751c-0.983,3.863-1.873,7.801-2.537,11.79 C0.446,247.854,0,251.893,0,256c0.008,5.467,0.773,10.842,1.848,16.107c1.604,7.886,3.905,15.595,5.794,22.708 c0.948,3.552,1.788,6.945,2.418,10.069c0.622,3.04,1.016,5.82,1.151,8.213c0,0.512,0,1.588,0,3.158c0,15.678,0,27.696,0,42.359 c0,3.644-0.277,6.584-0.688,9.086c-0.622,3.762-1.538,6.567-2.629,9.582c-0.546,1.503-1.142,3.056-1.747,4.778 c-0.597,1.722-1.201,3.612-1.672,5.711c-1.99,8.725-2.763,16.662-2.763,23.665c0,10.851,1.848,19.484,3.78,25.505 c1.932,6.038,3.938,9.472,4.308,10.077l1.36,2.226l2.226,1.36c0.596,0.37,4.039,2.368,10.069,4.3 c6.021,1.94,14.662,3.78,25.513,3.78c7.012,0,14.94-0.773,23.656-2.754c2.814-0.638,5.232-1.487,7.39-2.276 c3.258-1.192,5.954-2.25,9.204-3.048c3.242-0.806,7.096-1.41,12.571-1.41c16.09,0,91.21,0,97.071,0 c3.225,0.176,7.147,0.84,11.463,1.847c6.592,1.512,14.05,3.771,21.75,5.72c3.863,0.973,7.802,1.872,11.79,2.536 c3.99,0.663,8.028,1.1,12.136,1.108c5.475-0.009,10.841-0.773,16.107-1.84c7.886-1.612,15.595-3.914,22.708-5.803 c3.552-0.948,6.945-1.789,10.069-2.418c3.048-0.622,5.836-1.016,8.23-1.151c0.52,0,1.587,0,3.141,0c15.678,0,79.301,0,93.955,0 c3.644,0,6.584,0.277,9.086,0.688c3.762,0.622,6.567,1.538,9.582,2.629c1.503,0.546,3.056,1.142,4.778,1.747 c1.722,0.597,3.612,1.201,5.72,1.672c8.716,1.981,16.644,2.754,23.657,2.754c10.85,0,19.492-1.84,25.504-3.78 c6.038-1.931,9.481-3.93,10.077-4.3l2.226-1.36l1.36-2.226c0.37-0.604,2.368-4.039,4.308-10.077 c1.931-6.021,3.771-14.654,3.771-25.505c0-7.003-0.773-14.94-2.746-23.665c-0.639-2.805-1.487-5.216-2.276-7.382 c-1.2-3.25-2.259-5.954-3.065-9.204c-0.798-3.25-1.403-7.096-1.403-12.571c0-7.508,0-14.126,0-31.409 C500.789,326.71,500.789,326.147,500.789,325.626z M48.968,74.649c5.458,0,11.774,0.596,18.937,2.217 c1.344,0.31,2.864,0.806,4.77,1.512c2.864,1.042,6.61,2.536,11.404,3.729c4.812,1.2,10.623,2.041,17.71,2.032 c16.754,0,97.457,0,97.457,0h0.269l0.277-0.008c5.182-0.277,10.271-1.218,15.334-2.385c7.584-1.755,15.116-4.039,22.179-5.82 c3.519-0.89,6.911-1.654,10.069-2.184c3.158-0.52,6.081-0.814,8.625-0.814c3.401-0.009,7.449,0.52,11.849,1.419 c6.617,1.335,13.982,3.502,21.474,5.51c3.754,0.999,7.541,1.948,11.354,2.721c3.812,0.764,7.65,1.352,11.53,1.553l0.277,0.008 h0.269c0.008,0,1.268,0,3.502,0c15.678,0,79.301,0,93.955,0c4.719,0,8.876-0.361,12.554-0.974c5.51-0.898,9.935-2.36,13.395-3.619 c1.738-0.63,3.225-1.201,4.526-1.655c1.294-0.453,2.393-0.789,3.41-1.024c7.164-1.621,13.479-2.217,18.938-2.217 c5.912,0,10.791,0.705,14.628,1.579l-50.345,50.353H82.258L32.374,76.698C36.456,75.614,42.015,74.649,48.968,74.649z M423.798,138.573v234.854H88.203V138.573H423.798z M23.052,411.435c0-5.458,0.596-11.774,2.226-18.928 c0.302-1.36,0.798-2.872,1.503-4.779c1.033-2.864,2.536-6.601,3.737-11.404c1.192-4.812,2.032-10.623,2.024-17.71 c0-7.508,0-14.126,0-31.409c0-0.495,0-1.058,0-1.579c0-1.57,0-3.073,0-4.82c0-2.091,0-2.948,0-3.023c0-0.487,0-1.109,0-1.528 c0-2.234,0-3.494,0-3.494v-0.268l-0.009-0.286c-0.277-5.182-1.209-10.271-2.384-15.334c-1.755-7.584-4.048-15.116-5.82-22.179 c-0.89-3.519-1.654-6.911-2.175-10.069c-0.529-3.158-0.823-6.081-0.823-8.625c-0.009-3.401,0.52-7.449,1.419-11.849 c1.336-6.617,3.503-13.99,5.51-21.474c0.991-3.754,1.956-7.541,2.712-11.354c0.772-3.812,1.36-7.65,1.562-11.53l0.009-0.277v-0.277 c0,0,0-29.107,0-45.853c0-4.728-0.361-8.876-0.966-12.554c-0.898-5.51-2.368-9.935-3.628-13.403 c-0.638-1.73-1.209-3.216-1.654-4.518c-0.453-1.293-0.79-2.393-1.016-3.41c-1.63-7.163-2.226-13.478-2.226-18.937 c0-5.912,0.705-10.791,1.588-14.638l51.563,51.571v239.439l-51.101,51.085C24.018,423.948,23.052,418.389,23.052,411.435z M463.032,437.351c-5.459,0-11.774-0.596-18.938-2.217c-1.352-0.311-2.864-0.806-4.77-1.512c-2.864-1.041-6.601-2.536-11.404-3.736 c-4.812-1.201-10.623-2.033-17.71-2.024c-8.373,0-32.743,0-55.006,0c-11.144,0-21.75,0-29.578,0c-3.913,0-7.13,0-9.372,0 c-2.234,0-3.494,0-3.502,0h-0.269l-0.277,0.009c-5.182,0.277-10.279,1.209-15.334,2.384c-7.584,1.755-15.116,4.048-22.178,5.82 c-3.528,0.89-6.912,1.654-10.069,2.174c-3.158,0.529-6.08,0.823-8.624,0.823c-3.402,0.008-7.457-0.52-11.858-1.419 c-6.609-1.344-13.974-3.503-21.464-5.51c-3.755-1-7.542-1.956-11.355-2.721c-3.812-0.764-7.65-1.352-11.53-1.553l-0.277-0.009 h-0.269c0,0-80.703,0-97.457,0c-4.719,0-8.876,0.361-12.554,0.966c-5.509,0.898-9.935,2.377-13.403,3.628 c-1.73,0.629-3.216,1.209-4.518,1.654c-1.293,0.453-2.393,0.79-3.41,1.024c-7.163,1.621-13.479,2.217-18.937,2.217 c-5.912,0-10.792-0.705-14.638-1.579l50.354-50.353h342.631l50.362,50.361C473.84,436.655,468.927,437.351,463.032,437.351z M489.25,267.85c-1.336,6.617-3.502,13.982-5.509,21.472c-1,3.754-1.957,7.542-2.722,11.355c-0.764,3.812-1.352,7.65-1.545,11.53 l-0.017,0.277v0.269c0,0,0,1.268,0,3.502c0,15.678,0,27.696,0,42.359c0,4.728,0.361,8.876,0.966,12.546 c0.898,5.517,2.368,9.942,3.628,13.402c0.638,1.739,1.2,3.225,1.654,4.527c0.453,1.293,0.79,2.393,1.024,3.41 c1.621,7.163,2.217,13.479,2.217,18.937c0,6.962-0.974,12.504-2.066,16.586l-51.084-51.085V135.063l51.092-51.092 c1.091,4.081,2.057,9.641,2.057,16.594c0,5.458-0.596,11.774-2.217,18.937c-0.31,1.352-0.814,2.864-1.512,4.77 c-1.041,2.864-2.536,6.601-3.736,11.405c-1.193,4.811-2.033,10.623-2.024,17.71c0,16.746,0,45.853,0,45.853v0.286l0.017,0.268 c0.26,5.182,1.201,10.271,2.376,15.335c1.755,7.584,4.04,15.116,5.82,22.17c0.89,3.527,1.654,6.92,2.175,10.078 c0.529,3.158,0.823,6.08,0.823,8.624C490.669,259.401,490.149,263.449,489.25,267.85z"/> <path class="st0" d="M330.53,269.587c-3.123-3.703-7.684-5.912-12.538-6.046c-4.845-0.152-9.531,1.78-12.873,5.299l-41.342,43.518 l-48.859-73.297c-3.166-4.744-8.499-7.6-14.201-7.6c-5.702,0-11.035,2.856-14.2,7.6l-71.794,107.694h280.916L330.53,269.587z"/> <path class="st0" d="M302.466,240.7c19.004,0,34.398-15.394,34.398-34.398c0-19.005-15.394-34.398-34.398-34.398 c-19.005,0-34.398,15.393-34.398,34.398C268.068,225.306,283.461,240.7,302.466,240.7z"/> </g> </g>
</svg>