<!DOCTYPE svg PUBLIC "-//W3C//DTD SVG 1.1//EN" "http://www.w3.org/Graphics/SVG/1.1/DTD/svg11.dtd">
<!-- Uploaded to: SVG Repo, www.svgrepo.com, Transformed by: SVG Repo Mixer Tools -->
<svg fill="#ffffff" version="1.1" id="Capa_1" xmlns="http://www.w3.org/2000/svg" xmlns:xlink="http://www.w3.org/1999/xlink" width="64px" height="64px" viewBox="-4.5 -4.5 54.00 54.00" xml:space="preserve">
<g id="SVGRepo_bgCarrier" stroke-width="0"/>
<g id="SVGRepo_tracerCarrier" stroke-linecap="round" stroke-linejoin="round"/>
<g id="SVGRepo_iconCarrier"> <g> <g> <g> <path d="M44.432,36.581h-2.193v-0.303c0-0.303-0.245-0.549-0.548-0.549h-1.646V18.509h1.646c0.303,0,0.548-0.243,0.548-0.548 v-1.098c0-0.303-0.245-0.55-0.548-0.55H3.294c-0.304,0-0.549,0.247-0.549,0.55v1.098c0,0.305,0.245,0.548,0.549,0.548h1.646 v17.221H3.294c-0.304,0-0.549,0.246-0.549,0.551v0.302H0.551c-0.303,0-0.548,0.245-0.548,0.549v1.704 c0,0.306,0.245,0.547,0.548,0.547h43.881c0.304,0,0.548-0.241,0.548-0.547V37.13C44.98,36.826,44.735,36.581,44.432,36.581z M21.237,35.729V18.509h2.508v17.221H21.237L21.237,35.729z M25.939,35.729V18.509h2.509v17.221H25.939L25.939,35.729z M19.043,18.51V35.73h-2.509V18.51H19.043z M30.64,35.729V18.509h2.509v17.221H30.64L30.64,35.729z M14.341,18.51V35.73h-2.508 V18.51H14.341z M37.85,35.729h-2.51V18.509h2.51V35.729z M7.132,18.51h2.51V35.73h-2.51V18.51z"/> <path d="M0.55,15.494h43.881c0.009,0,0.016,0,0.021,0c0.303,0,0.548-0.247,0.548-0.55c0-0.265-0.187-0.485-0.436-0.536 L22.694,5.66c-0.131-0.056-0.277-0.056-0.408,0L0.346,14.434c-0.245,0.1-0.386,0.356-0.336,0.613 C0.063,15.307,0.289,15.494,0.55,15.494z"/> </g> </g> </g> </g>
</svg>