<svg xmlns="http://www.w3.org/2000/svg" width="55" height="54.916" viewBox="0 0 55 54.916">
  <g id="Group_26" data-name="Group 26" transform="translate(-2259 -3533)">
    <g id="Ellipse_47" data-name="Ellipse 47" transform="translate(2259 3533)" fill="#7f3500" stroke="#ab4312" stroke-width="2">
      <circle cx="27.458" cy="27.458" r="27.458" stroke="none"/>
      <circle cx="27.458" cy="27.458" r="26.458" fill="none"/>
    </g>
    <g id="SVGRepo_iconCarrier" transform="translate(2259.084 3533)">
      <path id="Path_23" data-name="Path 23" d="M51.458,24A27.458,27.458,0,1,0,78.916,51.458,27.458,27.458,0,0,0,51.458,24Zm9.5,19.009a3.168,3.168,0,1,1-3.168,3.168,3.168,3.168,0,0,1,3.168-3.168Zm-19.009,0a3.168,3.168,0,1,1-3.168,3.168,3.168,3.168,0,0,1,3.168-3.168Zm21.54,22.95a2.111,2.111,0,0,1-2.886-.771,10.565,10.565,0,0,0-18.3,0,2.112,2.112,0,0,1-3.657-2.115,14.789,14.789,0,0,1,25.612,0A2.112,2.112,0,0,1,63.493,65.959Z" transform="translate(-24 -24)" fill="#ff6b00"/>
    </g>
    <g id="Ellipse_55" data-name="Ellipse 55" transform="translate(2259 3533)" fill="none" stroke="#ab4312" stroke-width="2">
      <circle cx="27.458" cy="27.458" r="27.458" stroke="none"/>
      <circle cx="27.458" cy="27.458" r="26.458" fill="none"/>
    </g>
  </g>
</svg>
