<svg xmlns="http://www.w3.org/2000/svg" width="55" height="54.916" viewBox="0 0 55 54.916">
  <g id="Group_27" data-name="Group 27" transform="translate(-2338 -3533)">
    <g id="Ellipse_49" data-name="Ellipse 49" transform="translate(2338 3533)" fill="#7f5f07" stroke="#c8950e" stroke-width="2">
      <circle cx="27.458" cy="27.458" r="27.458" stroke="none"/>
      <circle cx="27.458" cy="27.458" r="26.458" fill="none"/>
    </g>
    <g id="SVGRepo_iconCarrier" transform="translate(2338.084 3533)">
      <path id="Path_22" data-name="Path 22" d="M51.458,24A27.458,27.458,0,1,0,78.916,51.458,27.458,27.458,0,0,0,51.458,24Zm-9.5,19.009a3.168,3.168,0,1,1-3.168,3.168,3.168,3.168,0,0,1,3.168-3.168ZM62.019,62.019H40.9a2.112,2.112,0,1,1,0-4.224H62.019a2.112,2.112,0,0,1,0,4.224ZM60.963,49.346a3.168,3.168,0,1,1,3.168-3.168,3.168,3.168,0,0,1-3.168,3.168Z" transform="translate(-24 -24)" fill="#ffbe0c"/>
    </g>
    <g id="Ellipse_56" data-name="Ellipse 56" transform="translate(2338 3533)" fill="none" stroke="#c8950e" stroke-width="2">
      <circle cx="27.458" cy="27.458" r="27.458" stroke="none"/>
      <circle cx="27.458" cy="27.458" r="26.458" fill="none"/>
    </g>
  </g>
</svg>
