<svg xmlns="http://www.w3.org/2000/svg" width="55" height="54.916" viewBox="0 0 55 54.916">
  <g id="Group_28" data-name="Group 28" transform="translate(-2417 -3533)">
    <g id="Ellipse_51" data-name="Ellipse 51" transform="translate(2417 3533)" fill="#646e0c" stroke="#9ea938" stroke-width="2">
      <circle cx="27.458" cy="27.458" r="27.458" stroke="none"/>
      <circle cx="27.458" cy="27.458" r="26.458" fill="none"/>
    </g>
    <g id="SVGRepo_iconCarrier" transform="translate(2417.084 3533)">
      <path id="Path_24" data-name="Path 24" d="M51.458,24A27.458,27.458,0,1,0,78.916,51.458,27.458,27.458,0,0,0,51.458,24Zm9.5,19.009a3.168,3.168,0,1,1-3.168,3.168,3.168,3.168,0,0,1,3.168-3.168Zm-19.009,0a3.168,3.168,0,1,1-3.168,3.168,3.168,3.168,0,0,1,3.168-3.168ZM64.264,58.851a14.789,14.789,0,0,1-25.612,0,2.112,2.112,0,1,1,3.657-2.115,10.565,10.565,0,0,0,18.3,0,2.112,2.112,0,1,1,3.657,2.115Z" transform="translate(-24 -24)" fill="#c8dc19"/>
    </g>
    <g id="Ellipse_57" data-name="Ellipse 57" transform="translate(2417 3533)" fill="none" stroke="#9ea938" stroke-width="2">
      <circle cx="27.458" cy="27.458" r="27.458" stroke="none"/>
      <circle cx="27.458" cy="27.458" r="26.458" fill="none"/>
    </g>
  </g>
</svg>
