<!DOCTYPE svg PUBLIC "-//W3C//DTD SVG 1.1//EN" "http://www.w3.org/Graphics/SVG/1.1/DTD/svg11.dtd">
<!-- Uploaded to: SVG Repo, www.svgrepo.com, Transformed by: SVG Repo Mixer Tools -->
<svg version="1.0" id="Layer_1" xmlns="http://www.w3.org/2000/svg" xmlns:xlink="http://www.w3.org/1999/xlink" width="800px" height="800px" viewBox="0 0 64 64" enable-background="new 0 0 64 64" xml:space="preserve" fill="#000000">
<g id="SVGRepo_bgCarrier" stroke-width="0"/>
<g id="SVGRepo_tracerCarrier" stroke-linecap="round" stroke-linejoin="round"/>
<g id="SVGRepo_iconCarrier"> <g> <circle fill="#fe7194" cx="7" cy="57" r="1"/> <g> <path fill="#fe7194" d="M14,26c0-2.212-1.789-4-4-4H4c-2.211,0-4,1.788-4,4v34c0,2.21,1.789,4,4,4h6c2.211,0,4-1.79,4-4V26z M7,60 c-1.657,0-3-1.344-3-3c0-1.658,1.343-3,3-3s3,1.342,3,3C10,58.656,8.657,60,7,60z"/> <path fill="#fe7194" d="M64,28c0-3.314-2.687-6-6-6H41l0,0h-0.016H41l2-18c0.209-2.188-1.287-4-3.498-4h-4.001 C33,0,31.959,1.75,31,4l-8,18c-2.155,5.169-5,6-7,6v30.218c1.203,0.285,2.714,0.945,4.21,2.479C23.324,63.894,27.043,64,29,64h23 c3.313,0,6-2.688,6-6c0-1.731-0.737-3.288-1.91-4.383C58.371,52.769,60,50.577,60,48c0-1.731-0.737-3.288-1.91-4.383 C60.371,42.769,62,40.577,62,38c0-1.731-0.737-3.288-1.91-4.383C62.371,32.769,64,30.577,64,28z"/> </g> </g> </g>
</svg>