<svg xmlns="http://www.w3.org/2000/svg" width="47.18" height="34.089" viewBox="0 0 47.18 34.089">
  <g id="Group_47" data-name="Group 47" transform="translate(-150 -785.099)">
    <path id="Icon_awesome-thumbs-up" data-name="Icon awesome-thumbs-up" d="M5.48,11.8H1.265A1.265,1.265,0,0,0,0,13.068V25.714a1.265,1.265,0,0,0,1.265,1.265H5.48a1.265,1.265,0,0,0,1.265-1.265V13.068A1.265,1.265,0,0,0,5.48,11.8ZM3.372,24.871a1.265,1.265,0,1,1,1.265-1.265A1.265,1.265,0,0,1,3.372,24.871ZM20.234,4.292c0,2.235-1.368,3.489-1.753,4.982h5.36a3.148,3.148,0,0,1,3.138,3.061,3.815,3.815,0,0,1-1.024,2.592l-.006.006a4.4,4.4,0,0,1-.49,4.187A4.167,4.167,0,0,1,24.6,23.06a2.8,2.8,0,0,1-.324,2.352c-1.075,1.545-3.741,1.567-6,1.567h-.15a15.127,15.127,0,0,1-6.3-1.672,8.293,8.293,0,0,0-2.774-.852.632.632,0,0,1-.621-.632V12.558a.632.632,0,0,1,.187-.449c2.087-2.063,2.985-4.246,4.7-5.96a6.382,6.382,0,0,0,1.338-3.1C14.887,2.07,15.377,0,16.44,0,17.7,0,20.234.422,20.234,4.292Z" transform="translate(170.202 792.209)" fill="#9b1b30"/>
    <path id="Icon_awesome-thumbs-down" data-name="Icon awesome-thumbs-down" d="M26.934,2.946V15.571a1.263,1.263,0,0,1-1.263,1.263H21.463A1.263,1.263,0,0,1,20.2,15.571V2.946a1.263,1.263,0,0,1,1.263-1.263h4.208A1.263,1.263,0,0,1,26.934,2.946Zm-2.1,10.521a1.263,1.263,0,1,0-1.263,1.263A1.263,1.263,0,0,0,24.83,13.467ZM10.521,26.934c1.062,0,1.551-2.067,1.785-3.04a6.371,6.371,0,0,1,1.336-3.1c1.708-1.711,2.6-3.891,4.688-5.95a.63.63,0,0,0,.187-.448V3.151a.631.631,0,0,0-.62-.631,8.277,8.277,0,0,1-2.77-.851A15.1,15.1,0,0,0,8.838,0h-.15C6.438,0,3.777.022,2.7,1.564A2.793,2.793,0,0,0,2.38,3.912a4.16,4.16,0,0,0-.862,3.933,4.395,4.395,0,0,0-.49,4.18l-.006.006A3.809,3.809,0,0,0,0,14.619a3.143,3.143,0,0,0,3.133,3.056H8.484c-.384,1.491-1.751,2.742-1.751,4.974C6.733,26.513,9.259,26.934,10.521,26.934Z" transform="translate(150 785.099)" fill="#9b1b30"/>
  </g>
</svg>
